<?xml version="1.0" encoding="UTF-8"?><svg id="uuid-f175d0c2-23c7-4ad3-901a-3a784068dabd" xmlns="http://www.w3.org/2000/svg" viewBox="0 0 15 15"><path d="m12.1096,10.7022h-1.0898c-.4126,0-.5402-.3281-1.2814-1.0793-.6457-.6252-.9313-.7092-1.0898-.7092-.2226,0-.2861.0635-.2861.3706v.9843c0,.2651-.0845.4236-.7832.4236-1.4094-.0945-2.6208-.8633-3.324-1.9836l-.0105-.0175c-.8162-1.0138-1.4179-2.2357-1.7155-3.5721l-.011-.0585c0-.1585.0635-.3071.3706-.3071h1.0898c.2751,0,.3811.127.4876.4231.5392,1.5565,1.4394,2.9219,1.81,2.9219.1375,0,.2011-.0635.2011-.4126v-1.61c-.0425-.7412-.4341-.8042-.4341-1.0688.0045-.1415.1205-.2546.2626-.2546.0045,0,.0085,0,.013.0005h-.0005,1.715c.2331,0,.3176.127.3176.4021v2.1707c0,.2326.106.3176.1696.3176.1375,0,.2546-.085.5082-.3386.5272-.6437.9778-1.3799,1.3214-2.1737l.023-.06c.0725-.1816.2466-.3076.4501-.3076.0095,0,.0185.0005.028.001h-.0015,1.0898c.3281,0,.4026.1686.3281.4021-.4371.9628-.9283,1.79-1.4974,2.5563l.026-.037c-.116.1906-.1585.2751,0,.4876.116.1585.4976.4866.7517.7832.3676.3636.6757.7867.9083,1.2539l.0125.0275c.106.3061-.053.4651-.3601.4651l.001-.001ZM9.8024,0h-4.6049C.9948,0,0,.9948,0,5.1976v4.6049c0,4.2028.9948,5.1976,5.1976,5.1976h4.6049c4.2028,0,5.1976-.9948,5.1976-5.1976v-4.6049C15,.9948,13.9942,0,9.8024,0h0Z"/></svg>