<?xml version="1.0" encoding="UTF-8"?><svg id="uuid-02f36045-1918-487f-bcb7-7b42495d7385" xmlns="http://www.w3.org/2000/svg" viewBox="0 0 512 512"><defs><style>.uuid-6fd457fa-0028-4ffb-93ec-42341372e158{fill:#fff;}.uuid-84b0d060-15a6-4b6b-8213-f0a5eaffb646{fill:#27282c;}.uuid-95af95ee-9dc0-4db3-b22a-5984d4844152{fill:#eb5831;}</style></defs><rect class="uuid-95af95ee-9dc0-4db3-b22a-5984d4844152" width="512" height="512"/><path class="uuid-6fd457fa-0028-4ffb-93ec-42341372e158" d="m256,125.94v223.67s-71.16-4.06-121.58,36.51c-50.41,40.56-75.91,5.22-86.34-29.55-7.42-24.74-1.64-74.14,2.31-100.57,1.6-10.71,5.99-28.25,11.59-43.35,11.7-31.58,34.36-82.82,62.59-97.72,41.72-22.02,89.6,13.91,131.43,11.01Z"/><path class="uuid-6fd457fa-0028-4ffb-93ec-42341372e158" d="m256,125.94v223.67s71.16-4.06,121.58,36.51c50.41,40.56,75.91,5.22,86.34-29.55,7.42-24.74,1.64-74.14-2.31-100.57-1.6-10.71-5.99-28.25-11.59-43.35-11.7-31.58-34.36-82.82-62.59-97.72-41.72-22.02-89.6,13.91-131.43,11.01Z"/><rect class="uuid-84b0d060-15a6-4b6b-8213-f0a5eaffb646" x="311.28" y="203.96" width="29.74" height="104.08"/><rect class="uuid-84b0d060-15a6-4b6b-8213-f0a5eaffb646" x="341.02" y="248.57" width="29.74" height="89.22" transform="translate(62.72 649.07) rotate(-90)"/><rect class="uuid-84b0d060-15a6-4b6b-8213-f0a5eaffb646" x="152.45" y="191.4" width="32.3" height="129.2" transform="translate(-131.64 194.2) rotate(-45)"/><rect class="uuid-84b0d060-15a6-4b6b-8213-f0a5eaffb646" x="152.45" y="191.4" width="32.3" height="129.2" transform="translate(106.8 556.24) rotate(-135)"/></svg>