<?xml version="1.0" encoding="UTF-8"?><svg id="uuid-1d6b5a6e-aa3e-4e16-a554-bba5f420fb42" xmlns="http://www.w3.org/2000/svg" viewBox="0 0 512 512"><defs><style>.uuid-d256df11-7207-4545-957c-341ea54112df{fill:#fff;}.uuid-fe2c136d-222c-4a0a-ad20-d07a6b195118{fill:#27282c;}.uuid-bdbf3be8-e7ad-4cb4-a9dd-82b1e59c7c31{fill:#eb5831;}</style></defs><rect class="uuid-d256df11-7207-4545-957c-341ea54112df" width="512" height="512"/><path class="uuid-bdbf3be8-e7ad-4cb4-a9dd-82b1e59c7c31" d="m0,256v256h512V0H0v256ZM178.5,104.6c5.6.8,18.6,3.5,29,6,32.5,7.8,37.9,8.7,51,8.6,12.7,0,17-.8,52.2-9.1,28.1-6.7,50.9-9.2,63.6-7.1,28.5,4.6,58,42,79.3,100.7,18.1,50.1,25.2,110.8,17.3,147.8-6.4,29.6-20.5,48.4-41,54.6-12.4,3.8-23.2.6-40.4-11.7-24.6-17.7-40.8-26.6-59.5-32.8-34.6-11.5-81.7-13.9-120.7-6.1-29.4,5.9-49.2,14.9-78.1,35.6-6.7,4.9-15.7,10.5-19.9,12.6-6.8,3.4-8.4,3.7-15.2,3.7-9.4,0-16.7-2.7-25.4-9.2-12.3-9.3-20.9-25.1-25.6-46.7-2.4-11.2-2.5-13.8-2.5-37.5,0-27.5,1.5-41.4,7-65.8,12.6-56.1,39.5-110.6,65.3-131.9,7.7-6.4,18.7-12,25.7-13.3,6.2-1.1,24.8-.3,37.9,1.6h0Z"/><rect class="uuid-fe2c136d-222c-4a0a-ad20-d07a6b195118" x="145.57" y="192" width="32" height="128" transform="translate(-133.7 189.23) rotate(-45)"/><rect class="uuid-fe2c136d-222c-4a0a-ad20-d07a6b195118" x="97.57" y="240" width="128" height="32" transform="translate(-133.69 189.23) rotate(-45)"/><rect class="uuid-fe2c136d-222c-4a0a-ad20-d07a6b195118" x="312" y="200" width="32" height="108.71"/><rect class="uuid-fe2c136d-222c-4a0a-ad20-d07a6b195118" x="343" y="277.65" width="64" height="31.06"/></svg>