<?xml version="1.0" encoding="UTF-8"?><svg id="uuid-ec9a18f1-d6b5-43b1-94cc-cb358557774e" xmlns="http://www.w3.org/2000/svg" viewBox="0 0 16 11.5556"><defs><style>.uuid-ccb6963d-b399-4db0-8e0e-f2c40400dcbd{fill:#fff;}.uuid-7824cfa1-f46d-457f-8e3b-e89195b053bd{fill:#ed2939;}.uuid-0387d383-6888-4b04-99ac-64c91981587c{fill:#eee;}</style></defs><path class="uuid-0387d383-6888-4b04-99ac-64c91981587c" d="m16,9.7778c0,.9818-.7959,1.7778-1.7778,1.7778H1.7778c-.9818,0-1.7778-.7959-1.7778-1.7778V1.7778C0,.7959.7959,0,1.7778,0h12.4444c.9818,0,1.7778.7959,1.7778,1.7778v8Z"/><path class="uuid-7824cfa1-f46d-457f-8e3b-e89195b053bd" d="m16,5.7778V1.7778c0-.9818-.7959-1.7778-1.7778-1.7778H1.7778C.7959,0,0,.7959,0,1.7778v4h16Z"/><path class="uuid-ccb6963d-b399-4db0-8e0e-f2c40400dcbd" d="m2.6667,2.8889c0-1.1489.7218-2.1102,1.6933-2.3716-.1904-.0476-.3859-.0721-.5822-.0729C2.4277.4444,1.3333,1.5389,1.3333,2.8889s1.0944,2.4444,2.4444,2.4444c.2009,0,.3951-.0267.5822-.0729-.9716-.2613-1.6933-1.2227-1.6933-2.3716Z"/><path class="uuid-0387d383-6888-4b04-99ac-64c91981587c" d="m5.3333.8889l.1.3071h.3227l-.2613.1898.1.3071-.2613-.1898-.2613.1898.1-.3071-.2613-.1898h.3227l.1-.3071Zm-.8889,3.1111l.1.3071h.3227l-.2613.1898.1.3071-.2613-.1898-.2613.1898.1-.3071-.2613-.1898h.3227l.1-.3071Zm1.7778,0l.1.3071h.3227l-.2613.1898.1.3071-.2613-.1898-.2613.1898.1-.3071-.2613-.1898h.3227l.1-.3071Zm-2.2222-1.7778l.1.3071h.3227l-.2613.1898.1.3071-.2613-.1898-.2613.1898.1-.3071-.2613-.1898h.3227l.1-.3071Zm2.6667,0l.1.3071h.3227l-.2613.1898.1.3071-.2613-.1898-.2613.1898.1-.3071-.2613-.1898h.3227l.1-.3071Z"/></svg>