<?xml version="1.0" encoding="UTF-8"?><svg id="uuid-8daf9bd6-92b9-43b9-98e1-90013ac3ea3b" xmlns="http://www.w3.org/2000/svg" viewBox="0 0 16 10"><defs><style>.uuid-831f3398-d442-4522-91ef-8d2640ead9cd,.uuid-f8e102f4-47c9-4b24-8646-4aab74179d85{fill:#fff;}.uuid-f8e102f4-47c9-4b24-8646-4aab74179d85,.uuid-4ac758e3-6ae6-4600-92cd-01af33b04380{fill-rule:evenodd;}.uuid-4ac758e3-6ae6-4600-92cd-01af33b04380{fill:#df0000;}</style></defs><path class="uuid-f8e102f4-47c9-4b24-8646-4aab74179d85" d="m0,0h16v10H0V0Z"/><path class="uuid-4ac758e3-6ae6-4600-92cd-01af33b04380" d="m0,0h16v5H0V0Z"/><path class="uuid-f8e102f4-47c9-4b24-8646-4aab74179d85" d="m3.4,2.2917l.1089.3125-.2889-.1917-.2844.1958.1044-.3167-.2844-.1938.3533-.0042.1111-.3125.1111.3125h.3511l-.2822.1979Zm.3889,1.0833l.1111.3146-.2889-.1917-.2867.1938.1067-.3146-.2844-.1958.3533-.0021.1089-.3146.1111.3125h.3556l-.2867.1979Zm1.3-.0083l.1089.3167-.2889-.1938-.2844.1938.1044-.3146-.2844-.1938.3533-.0042.1111-.3125.1111.3125h.3511l-.2822.1958Zm.3867-1.075l.1089.3146-.2889-.1917-.2844.1938.1067-.3146-.2867-.1958.3556-.0021.1067-.3146.1111.3125h.3556l-.2844.1979Zm-1.0289-.7146l.1111.3167-.2889-.1938-.2867.1958.1067-.3167-.2844-.1958.3511-.0021.1111-.3146.1111.3125h.3556l-.2867.1979Z"/><path class="uuid-831f3398-d442-4522-91ef-8d2640ead9cd" d="m2.24,2.5c0-.8617.6416-1.5827,1.5052-1.7787-.1693-.0357-.343-.054-.5175-.0547-1.2,0-2.1728.8208-2.1728,1.8333s.9728,1.8333,2.1728,1.8333c.1786,0,.3512-.02.5175-.0547-.8636-.196-1.5052-.917-1.5052-1.7787Z"/></svg>