<?xml version="1.0" encoding="UTF-8"?><svg id="uuid-2a0d26ae-a1d8-47dc-8320-f359d6b690da" xmlns="http://www.w3.org/2000/svg" viewBox="0 0 15 11.9999"><defs><style>.uuid-673aa42c-356b-42ea-a410-0452cf69ae55{fill-rule:evenodd;}</style></defs><g id="uuid-1a4f284b-323c-4d9e-8b53-5028d1daed0d"><g id="uuid-57440778-22ef-4022-a641-35a5043db78e"><g id="uuid-9f4eeb12-543d-4493-a9f6-51c0077418d2"><path id="uuid-079fb2f0-9eba-4f86-8942-3715d0708184" class="uuid-673aa42c-356b-42ea-a410-0452cf69ae55" d="m4.7175,11.9999c5.6602,0,8.7563-4.6172,8.7563-8.621,0-.1315,0-.2622-.009-.3918.6023-.4285,1.122-.9602,1.5353-1.5685-.561.245-1.1572.4061-1.767.4768.642-.3787,1.1228-.9738,1.353-1.6761-.6045.353-1.2653.6021-1.9545.7357-1.1655-1.2198-3.1147-1.2792-4.3545-.1315-.7988.7397-1.1385,1.8428-.8903,2.8953-2.4742-.1227-4.7798-1.2729-6.3427-3.1655-.8168,1.3843-.399,3.1549.9532,4.0441-.4897-.0139-.969-.1439-1.3972-.3787v.0385c.0007,1.4421,1.0335,2.684,2.469,2.9696-.453.1219-.9285.1395-1.389.0516.4028,1.2349,1.5585,2.0804,2.8748,2.1046-1.0898.8434-2.436,1.3011-3.822,1.2997-.2445-.0007-.489-.0146-.7328-.0436,1.4077.8892,3.045,1.3608,4.7175,1.3586"/></g></g></g></svg>